# xmcd
#
# Track frame offsets:
#	150
#	11000
#	23587
#	47400
#	59062
#	74362
#	91050
#	103775
#	126025
#	136537
#	148825
#	160262
#	172437
#	185625
#	200525
#	212075
#	223775
#	239812
#
# Disc length: 3363 seconds
#
# Revision: 2
# Processed by: cddbd v1.5.2PL0 Copyright (c) Steve Scherf et al.
# Submitted via: audiograbber 1.83.01
#
DISCID=140d2112
DTITLE=Soul Sampler - Sweet Soul Music [CD1)
DYEAR=1996
DGENRE=Soul
TTITLE0=Aretha Franklin - Respect
TTITLE1=Rare Earth - Get Ready
TTITLE2=James Brown - Sex Machine
TTITLE3=Wilson Pickett - Funky Broadway
TTITLE4=Edwin Starr - War
TTITLE5=Tony Joe White - Polk Salad Annie
TTITLE6=Carla Thomas and Otis Redding - Knock On Wood
TTITLE7=Ike and Tina Turner - Proud Mary
TTITLE8=Bar Keys - Soul Finger
TTITLE9=Four Tops - I Can t Help Myself
TTITLE10=Sam and Dave - Hold On I m Coming
TTITLE11=Otis Redding - Fa-Fa-Fa-Fa-Fa (Sad Song)
TTITLE12=O'Jays - Love Train
TTITLE13=Rare Earth - Born To Wander
TTITLE14=Wilson Pickett - In The Midnight Hour
TTITLE15=Ike and Tina Turner - Bold Soul Sister
TTITLE16=Aretha Franklin - I Say A Little Prayer
TTITLE17=Four Tops - It s The Same Old Song
EXTD=
EXTT0=Aretha Franklin\n
EXTT1=Rare Earth\n
EXTT2=James Brown\n
EXTT3=Wilson Pickett\n
EXTT4=Edwin Starr\n
EXTT5=Tony Joe White\n
EXTT6=Carla Thomas and Otis Redding\n
EXTT7=Ike and Tina Turner\n
EXTT8=The Bar Keys\n
EXTT9=The Four Tops\n
EXTT10=Sam and Dave\n
EXTT11=Otis Redding\n
EXTT12=The O Jays\n
EXTT13=Rare Earth\n
EXTT14=Otis Redding\n
EXTT15=Ike and Tina Turner\n
EXTT16=Aretha Franklin\n
EXTT17=The Four Tops\n
PLAYORDER=
